# xmcd
#
# Track frame offsets:
# 150
# 8390
# 24080
# 34685
# 44345
# 56665
# 67952
# 74770
# 88260
# 100132
# 112822
# 127855
# 143060
# 152017
# 169220
# 180797
# 191682
# 199745
# 208305
# 220257
#
# Disc length: 3096 seconds
#
# Revision: 0
# Processed by: cddbd v1.4PL0 Copyright (c) Steve Scherf et al.
# Submitted via: MacMP3 Pro 5.0 (http://mp3.act2.co.jp/)
#
DISCID=0e0c1614
DTITLE=PEREZ PRADO and His Orchestra - THE BEST OF MAMBO
DYEAR=1900
DGENRE=
TTITLE0=HISTORIA DE UN AMOR
TTITLE1=LA MACARENA
TTITLE2=MAMBO No.5
TTITLE3=CACHITO
TTITLE4=QUIZAS, QUIZAS, QUIZAS
TTITLE5=BESAME MUCHO
TTITLE6=MAMBO No.8
TTITLE7=TABU
TTITLE8=J'AI PLEURE DE JOIE
TTITLE9=LA BAMBA
TTITLE10=EL BIMBO
TTITLE11=COPACABANA
TTITLE12=CEREZO ROSA
TTITLE13=JUNGLE
TTITLE14=LA REINE DE SABA
TTITLE15=EL CONDOR PASA
TTITLE16=AQUELLOS OJOS GRISES
TTITLE17=EL HUMAHUAQUENO
TTITLE18=CORAZON DE MELON
TTITLE19=TOMBE LA NEIGE
EXTD=
EXTT0=
EXTT1=
EXTT2=
EXTT3=
EXTT4=
EXTT5=
EXTT6=
EXTT7=
EXTT8=
EXTT9=
EXTT10=
EXTT11=
EXTT12=
EXTT13=
EXTT14=
EXTT15=
EXTT16=
EXTT17=
EXTT18=
EXTT19=
PLAYORDER=
